# xmcd
#
# Track frame offsets:
# 150
# 14409
# 29504
# 44342
# 63670
# 81990
# 96774
# 109149
# 118262
# 145585
# 160275
# 176310
#
# Disc length: 2478 seconds
#
#
# Revision: 0
# Processed by: cddbd v1.5.2PL0 Copyright (c) Steve Scherf et al.
# Submitted via: FreeRIP 2.945 
#
DISCID=a109ac0c
DTITLE=Prison Love - This Corn is Awesome
DYEAR=2004
DGENRE=Bluegrass
TTITLE0=Shady Grove
TTITLE1=Are You From Dixie
TTITLE2=I Saw The Light
TTITLE3=Parlex Nous A Boire
TTITLE4=Get On Your Knees (And Pray)
TTITLE5=Never Picked Cotton
TTITLE6=Tom Dooley
TTITLE7=Rabbit In A Log
TTITLE8=What Would You Give
TTITLE9=My True Love
TTITLE10=Worried Man
TTITLE11=Sing Song Kitty
EXTD=
EXTT0=
EXTT1=
EXTT2=
EXTT3=
EXTT4=
EXTT5=
EXTT6=
EXTT7=
EXTT8=
EXTT9=
EXTT10=
EXTT11=
PLAYORDER=
